<?xml version="1.0" standalone="no"?>
<!DOCTYPE svg PUBLIC "-//W3C//DTD SVG 20010904//EN"
 "http://www.w3.org/TR/2001/REC-SVG-20010904/DTD/svg10.dtd">
<svg version="1.0" xmlns="http://www.w3.org/2000/svg"
 width="1080.000000pt" height="1080.000000pt" viewBox="0 0 1080.000000 1080.000000"
 preserveAspectRatio="xMidYMid meet">

<g transform="translate(0.000000,1080.000000) scale(0.100000,-0.100000)"
fill="#000000" stroke="none">
<path d="M1304 7451 c4 -1653 11 -3134 16 -3291 6 -206 14 -318 29 -405 49
-291 141 -553 290 -825 37 -69 87 -163 111 -210 62 -123 265 -474 318 -549 95
-134 215 -262 458 -487 157 -144 199 -176 499 -366 300 -191 393 -236 928
-445 400 -156 587 -223 1009 -360 311 -100 338 -107 413 -107 93 0 155 14 280
61 50 19 195 66 324 104 136 41 357 118 530 186 163 63 418 162 566 220 158
61 337 138 430 186 620 319 1104 772 1444 1350 222 379 406 901 467 1322 23
158 32 1331 33 4241 l1 2381 -4077 0 -4076 0 7 -3006z m4371 2908 c-1455 -21
-3436 -36 -3896 -30 -301 3 -314 2 -358 -55 l-21 -27 0 62 0 61 2413 -2 c1698
-1 2249 -4 1862 -9z m2829 -330 c62 -49 75 -147 31 -241 -32 -68 -33 -124 -4
-133 11 -4 22 -5 24 -3 1 1 33 56 71 121 97 170 166 224 305 243 l47 6 6 -48
c9 -60 -7 -133 -40 -194 -42 -75 -66 -96 -118 -104 -77 -12 -128 -34 -168 -73
-41 -40 -51 -83 -20 -83 9 0 44 7 77 14 119 28 169 30 217 8 65 -29 93 -73 93
-147 0 -67 -16 -96 -74 -136 -30 -21 -46 -24 -125 -23 -50 0 -126 4 -169 8
l-78 8 33 38 c18 21 44 39 58 41 18 3 25 10 25 26 0 17 -13 29 -54 50 -59 30
-63 35 -80 100 -13 49 -37 66 -92 66 -36 0 -39 2 -60 54 -24 60 -13 57 -120
36 -24 -4 -25 -3 -22 34 21 237 38 295 96 332 43 27 106 27 141 0z m-6075 -58
c51 -27 98 -82 111 -132 9 -33 8 -70 -6 -173 -9 -72 -20 -134 -23 -139 -4 -4
-29 24 -56 63 -26 38 -52 70 -55 70 -4 0 -18 -25 -30 -55 -25 -62 -35 -70
-102 -79 l-46 -7 -17 -64 -18 -65 -54 -20 c-29 -11 -58 -20 -63 -20 -22 0 -7
-21 45 -62 35 -27 50 -45 42 -49 -26 -15 -235 -30 -271 -21 -53 15 -92 47
-115 95 -42 87 -18 153 63 176 34 9 124 1 269 -24 25 -4 27 -2 27 29 0 44 -29
68 -113 96 -128 42 -198 123 -216 251 -5 35 -8 65 -7 66 8 9 189 -63 229 -90
42 -28 119 -117 167 -193 9 -14 25 -24 39 -24 23 0 23 2 17 58 -20 177 -19
218 4 259 40 72 105 91 179 54z m3043 -319 l41 -53 -20 -21 c-19 -18 -34 -20
-153 -22 -125 -1 -133 0 -150 21 -17 21 -38 148 -27 160 3 3 22 -20 43 -51 20
-31 40 -56 43 -56 3 0 12 10 20 23 8 12 32 46 54 76 l40 55 34 -40 c18 -21 52
-63 75 -92z m76 100 c2 -7 -3 -12 -12 -12 -9 0 -16 7 -16 16 0 17 22 14 28 -4z
m2898 -274 c2 -3 12 -41 21 -84 14 -71 16 -336 17 -2754 1 -2830 2 -2761 -44
-2991 -143 -709 -616 -1329 -1268 -1662 -143 -73 -180 -88 -775 -298 -281
-100 -564 -204 -627 -233 -107 -47 -121 -51 -192 -51 -109 1 -116 14 -31 63
99 59 189 92 495 181 773 226 1035 332 1333 539 439 305 762 742 928 1257 74
229 132 579 123 740 -9 156 -25 3952 -20 4590 6 629 8 610 -56 632 -54 18
-1525 18 -1640 -1 -69 -11 -97 -11 -145 -2 -42 9 -93 10 -170 4 -60 -4 -697
-10 -1415 -13 -718 -3 -1582 -9 -1920 -13 -697 -9 -668 -6 -692 -85 -11 -34
-12 -547 -10 -2652 1 -1665 6 -2644 12 -2705 24 -224 107 -546 195 -755 164
-391 541 -836 892 -1054 185 -115 457 -227 1233 -508 379 -137 439 -164 462
-203 16 -28 16 -29 -2 -35 -21 -7 -261 60 -400 112 -52 20 -196 78 -320 130
-124 53 -324 136 -445 185 -453 184 -737 360 -990 613 -291 292 -518 686 -616
1071 -90 356 -99 641 -98 3044 1 2030 8 2873 24 2889 6 6 176 12 440 15 237 3
781 11 1210 17 429 6 1122 14 1540 17 827 8 2943 7 2951 0z m-609 -299 c155
-5 289 -12 297 -15 11 -4 16 -34 21 -127 3 -67 5 -1242 3 -2612 -4 -2257 -5
-2500 -20 -2598 -50 -323 -147 -572 -328 -844 -222 -335 -474 -555 -859 -747
-215 -109 -436 -191 -1126 -420 -436 -145 -491 -157 -594 -137 -105 21 -1058
394 -1426 559 -222 99 -393 219 -585 412 -180 180 -241 266 -370 523 -118 235
-138 289 -175 473 -56 273 -57 293 -64 1379 -14 2216 -4 4066 24 4093 2 3 226
10 497 17 419 10 499 14 530 28 40 18 123 23 133 8 13 -21 112 -23 415 -6 272
16 353 17 563 7 240 -11 447 -9 1682 17 432 9 951 5 1382 -10z m887 -2892 c25
-43 44 -82 42 -86 -5 -7 -62 -33 -98 -45 -24 -7 -23 -47 0 -53 17 -4 47 -41
40 -49 -2 -2 -26 7 -54 20 -65 30 -78 60 -76 174 2 90 13 115 57 132 25 10 31
4 89 -93z m-6601 12 c53 -14 64 -39 72 -161 5 -94 4 -113 -13 -151 -11 -24
-34 -54 -52 -67 l-32 -23 7 62 c7 60 6 62 -27 94 -18 18 -44 39 -57 48 l-24
15 52 38 c28 21 51 44 51 51 0 7 -7 29 -15 48 -25 61 -23 63 38 46z m-706
-2336 c-2 -16 -4 -3 -4 27 0 30 2 43 4 28 2 -16 2 -40 0 -55z m7272 -764 c16
-48 13 -127 -6 -160 -28 -47 -69 -60 -183 -57 -93 2 -101 0 -125 -22 -14 -13
-25 -27 -25 -31 0 -3 39 -19 88 -33 48 -15 102 -33 120 -41 35 -16 72 -68 72
-100 -1 -29 -70 -75 -115 -75 -51 0 -69 12 -116 78 -66 91 -90 101 -143 59
-32 -26 -31 -57 2 -57 10 0 27 -12 39 -27 42 -58 56 -98 57 -161 1 -61 0 -65
-37 -99 -33 -30 -44 -34 -70 -29 -47 9 -93 61 -116 127 -11 32 -17 60 -13 63
4 2 27 6 52 10 l45 7 0 97 c1 134 26 186 147 305 89 87 90 89 77 118 -16 40
-6 47 66 52 172 10 172 10 184 -24z m-6301 -90 l30 -10 -19 -56 c-10 -31 -17
-58 -15 -60 2 -2 28 -6 57 -10 30 -3 57 -11 61 -17 14 -21 9 -103 -7 -116 -22
-19 -157 -7 -227 20 -95 35 -151 127 -117 189 34 60 152 90 237 60z m192 -375
c-47 -122 -117 -206 -184 -218 -49 -9 -145 11 -153 32 -9 23 14 122 34 144 41
45 111 65 240 67 l73 1 -10 -26z m155 -184 l58 -92 -17 -80 c-9 -45 -23 -92
-31 -105 -33 -51 -113 -52 -168 -4 -22 21 -32 40 -38 81 -10 58 -4 121 14 155
18 35 110 144 117 140 4 -2 33 -45 65 -95z m2854 -1337 c49 -135 31 -153 -68
-65 -33 28 -62 52 -65 52 -2 0 -19 -38 -37 -85 l-32 -85 -32 73 c-19 39 -36
80 -39 90 -10 32 -49 17 -57 -21 -7 -34 -77 -122 -94 -118 -20 5 -16 51 11
135 15 47 28 87 29 89 2 2 44 -4 96 -13 100 -18 145 -14 199 15 19 11 40 19
47 20 6 0 25 -39 42 -87z"/>
<path d="M7536 9113 c-4 -5 -400 -8 -879 -9 -1158 -1 -3849 -22 -3884 -30 -51
-12 -80 -33 -94 -66 -12 -28 -14 -216 -14 -1138 1 -2006 1 -2789 1 -3310 -1
-445 2 -533 17 -650 61 -450 227 -802 552 -1172 156 -179 379 -349 585 -447
123 -58 427 -173 1030 -388 384 -137 440 -154 480 -150 162 20 1372 424 1605
537 182 88 606 456 754 655 203 272 336 609 387 982 21 155 34 797 22 1078 -4
116 -8 1065 -8 2110 0 1045 -3 1923 -7 1950 l-8 50 -266 3 c-146 1 -269 -1
-273 -5z m419 -99 c16 -7 33 -56 42 -126 6 -47 -16 -130 -38 -144 -5 -3 -21 4
-35 15 -33 26 -54 26 -105 0 -23 -11 -42 -19 -43 -17 -2 2 -15 49 -30 106
l-27 102 21 30 c12 16 29 34 38 40 17 10 146 6 177 -6z m-2403 -11 c9 -10 24
-36 35 -58 22 -47 56 -56 62 -15 5 37 38 79 59 74 9 -3 50 -55 90 -116 62 -95
72 -117 72 -155 0 -84 -48 -133 -130 -133 -69 0 -103 41 -155 193 -56 159 -70
188 -91 180 -19 -7 -34 -44 -34 -85 0 -17 12 -87 26 -157 17 -83 24 -141 20
-170 -7 -51 -47 -129 -86 -166 l-28 -27 -36 48 c-20 27 -50 77 -67 111 -41 81
-36 124 27 250 l46 91 -17 54 c-10 29 -23 56 -28 60 -16 10 -37 -2 -37 -22 0
-29 -96 -246 -135 -305 -48 -72 -74 -88 -117 -73 -88 29 -134 92 -124 172 5
50 88 236 105 236 11 0 61 -120 61 -147 0 -18 6 -23 24 -23 20 0 24 6 30 40 3
22 17 64 30 94 24 54 25 55 73 59 26 2 107 4 179 5 114 2 133 0 146 -15z
m-2581 -25 c52 -17 114 -63 148 -110 17 -23 30 -43 28 -44 -1 -1 -38 6 -81 17
-44 10 -81 17 -82 16 -1 -1 13 -39 31 -84 l33 -82 -41 16 c-23 9 -49 25 -58
36 -20 24 -54 19 -54 -8 -1 -11 -7 -35 -14 -53 -13 -30 -15 -31 -31 -17 -30
27 -80 138 -86 192 -8 67 2 120 24 126 35 10 150 7 183 -5z m944 -11 c28 -9
67 -30 87 -47 20 -17 336 -376 701 -798 365 -422 793 -913 950 -1092 226 -258
283 -328 274 -339 -8 -9 -11 -69 -9 -185 2 -122 -2 -195 -13 -256 -9 -47 -18
-134 -22 -195 -10 -193 -14 -196 -279 -197 -279 0 -476 -23 -611 -70 -72 -25
-87 -19 -97 37 -4 19 -29 79 -57 132 -47 91 -50 102 -47 158 5 77 41 154 147
312 65 98 93 130 139 162 31 22 72 52 91 68 38 31 91 100 91 118 0 6 -19 20
-42 30 -37 16 -52 17 -126 8 -96 -12 -125 -29 -160 -91 -20 -36 -28 -42 -57
-42 -39 0 -53 -17 -105 -120 -42 -84 -139 -230 -199 -300 -81 -93 -81 -94 -80
-212 0 -100 -13 -188 -29 -188 -4 0 -30 16 -57 36 -28 19 -101 65 -164 102
-127 74 -182 128 -230 227 -41 82 -61 165 -61 248 0 90 14 134 61 194 63 78
100 137 97 153 -2 8 -14 17 -28 18 -14 2 -32 10 -40 17 -12 10 -30 10 -96 -4
-109 -22 -130 -38 -151 -112 -12 -45 -23 -64 -44 -76 -51 -30 -51 -54 -9 -237
21 -92 41 -190 45 -219 6 -46 5 -50 -8 -37 -21 22 -710 801 -860 973 -70 81
-134 162 -142 180 -25 60 -23 1217 2 1260 3 5 20 -29 39 -75 29 -73 53 -108
75 -108 3 0 26 45 50 100 24 55 47 100 51 100 25 0 68 -29 131 -88 99 -94 197
-130 197 -73 0 11 -9 25 -19 30 -18 10 -137 219 -128 227 2 2 48 24 103 49 60
27 99 50 99 59 0 15 -37 43 -152 118 -108 69 -103 70 296 66 286 -4 355 -7
396 -21z m85 -2153 c0 -15 -36 -74 -48 -79 -21 -8 -79 5 -92 20 -7 9 -6 16 6
26 34 29 134 53 134 33z m2210 9 c0 -16 -41 -74 -55 -80 -18 -6 -105 16 -105
27 0 13 37 41 66 50 37 11 94 12 94 3z m41 -31 c-11 -20 -51 -58 -51 -48 0 4
10 20 22 36 24 32 45 41 29 12z m-2201 -12 c0 -14 -40 -53 -47 -46 -8 7 25 56
37 56 6 0 10 -4 10 -10z m1101 -17 c-18 -34 -62 -73 -80 -73 -32 0 -81 22 -81
36 0 24 68 52 133 53 33 1 37 -1 28 -16z m49 -21 c0 -12 -59 -66 -65 -60 -7 7
43 68 56 68 5 0 9 -4 9 -8z m952 -40 c4 -4 -7 -25 -26 -45 -45 -49 -60 -113
-61 -252 0 -105 7 -163 42 -355 17 -96 18 -99 9 -120 -4 -10 5 -20 27 -30 40
-19 51 -64 18 -75 -29 -9 -26 -19 10 -32 26 -10 29 -10 19 3 -10 11 -9 14 8
14 22 0 52 -34 52 -59 0 -8 14 -26 32 -41 l31 -26 -1 -103 c-1 -76 2 -101 11
-98 7 2 13 18 15 35 2 18 9 32 17 32 18 0 27 -44 15 -76 -6 -15 -11 -57 -12
-93 -1 -53 -6 -72 -24 -97 -24 -31 -32 -74 -14 -74 6 0 10 4 10 8 0 5 14 30
32 56 25 39 29 52 20 66 -8 14 -7 29 8 66 10 27 21 71 25 98 8 48 8 49 24 27
19 -25 31 -19 31 16 0 12 4 23 10 23 16 0 30 -37 30 -79 0 -39 2 -41 30 -41
35 0 60 -39 60 -95 0 -28 7 -44 31 -66 31 -28 31 -31 25 -89 -5 -47 -3 -65 8
-82 9 -12 16 -37 16 -55 0 -30 -3 -33 -30 -33 -19 0 -33 -7 -40 -19 -16 -30
-12 -49 6 -26 11 15 18 17 32 9 26 -17 26 -40 -2 -68 -15 -14 -26 -35 -26 -48
1 -23 1 -22 21 5 28 37 49 35 49 -6 0 -47 -24 -77 -64 -77 -39 0 -56 -15 -56
-52 0 -28 -23 -49 -69 -63 -25 -8 -26 -1 -6 48 4 9 3 17 -3 17 -28 0 -75 -171
-52 -185 6 -4 12 0 14 7 14 53 23 72 34 76 8 2 12 -8 12 -30 l1 -33 20 37 c10
21 29 42 40 49 20 10 21 9 14 -23 l-6 -33 20 30 c25 37 43 38 51 5 6 -25 7
-25 14 -3 4 14 12 20 22 16 8 -3 24 1 37 9 12 8 40 18 62 22 22 4 54 16 71 27
40 24 76 24 105 -1 l24 -19 -50 -1 c-50 0 -126 -28 -140 -50 -5 -8 -2 -10 11
-7 11 3 48 13 83 22 59 15 64 15 82 -1 10 -9 19 -30 19 -46 0 -25 -6 -32 -40
-46 -22 -9 -40 -23 -40 -29 0 -17 20 -16 65 3 46 19 85 7 85 -27 0 -23 -39
-97 -100 -189 -42 -64 -60 -103 -60 -129 0 -11 -24 -43 -52 -73 -29 -30 -67
-72 -84 -94 -43 -54 -111 -77 -221 -75 -90 2 -121 9 -143 37 -14 16 -13 17 13
12 33 -6 33 -4 2 34 -14 17 -24 32 -21 35 2 2 21 -3 41 -11 21 -9 39 -16 40
-16 7 0 -81 129 -88 129 -5 1 -20 -12 -33 -29 -28 -33 -60 -44 -186 -61 -69
-9 -93 -9 -118 1 -50 21 -53 39 -15 92 44 61 126 102 204 102 31 1 57 4 58 8
2 5 -5 24 -14 43 -15 30 -15 40 -4 71 7 19 10 39 6 42 -11 11 -35 -30 -35 -59
0 -15 -5 -31 -11 -35 -20 -12 -34 16 -32 63 l2 45 -25 -23 c-35 -33 -42 -15
-14 36 27 49 21 68 -11 39 -22 -19 -22 -19 -14 6 5 14 9 40 11 57 1 18 12 45
23 59 24 31 22 40 -7 25 -17 -9 -28 -29 -46 -85 -11 -33 -36 1 -36 48 0 34 6
48 30 71 30 28 36 48 24 79 -10 26 -24 18 -24 -12 0 -20 -9 -35 -30 -50 -46
-35 -54 -30 -46 34 8 70 -11 70 -31 0 -14 -48 -35 -58 -41 -20 -8 46 -12 49
-38 19 l-24 -30 -28 33 c-32 37 -47 41 -39 12 8 -32 -8 -33 -64 -4 l-52 26
-18 -23 c-17 -22 -17 -22 -83 -6 -43 11 -73 13 -84 8 -9 -5 -134 -14 -277 -20
-143 -6 -316 -17 -385 -25 -202 -24 -374 -17 -408 18 -12 11 -19 12 -33 3 -58
-36 -392 126 -374 182 3 11 -4 26 -20 41 -16 15 -25 34 -25 54 0 49 -10 75
-26 69 -10 -4 -14 3 -14 26 0 17 4 31 8 31 17 0 42 -37 58 -83 9 -27 30 -59
50 -77 47 -40 66 -38 26 3 -18 18 -38 55 -47 83 -8 27 -33 74 -55 104 -42 56
-45 66 -31 89 7 10 15 2 35 -32 35 -59 58 -70 43 -20 -10 32 -9 37 14 53 19
15 21 22 12 31 -10 10 -18 10 -39 0 -32 -14 -50 -3 -59 40 -9 41 0 47 24 18
32 -38 26 -2 -10 64 -34 63 -33 103 2 92 24 -8 25 13 2 53 -16 27 -16 32 3 82
29 80 43 76 46 -16 2 -51 7 -79 16 -82 8 -2 12 9 12 38 0 42 0 42 33 35 32 -6
32 -6 11 12 -12 10 -29 23 -39 28 -15 9 -16 16 -6 51 6 22 22 51 36 64 32 30
32 40 0 40 -30 0 -31 4 -4 41 17 24 18 29 5 29 -9 0 -26 -11 -38 -25 -26 -30
-34 -31 -48 -5 -8 15 -7 27 5 49 17 34 21 71 5 55 -5 -5 -15 -26 -22 -47 l-13
-37 -68 79 c-76 90 -87 113 -87 179 0 26 -20 132 -45 236 -25 105 -45 205 -45
222 0 28 4 33 27 36 24 3 29 9 36 46 5 24 14 45 21 48 7 3 35 1 62 -3 44 -8
49 -11 47 -33 -1 -14 -13 -56 -28 -95 -28 -78 -28 -124 2 -245 31 -127 109
-264 177 -311 l36 -24 -23 -17 c-22 -17 -21 -18 31 -18 53 0 112 -21 112 -40
0 -6 -11 -10 -25 -10 -14 0 -25 -4 -25 -10 0 -5 8 -10 18 -10 9 0 29 -6 44
-14 17 -9 30 -10 36 -4 13 13 68 -16 83 -43 6 -11 26 -27 45 -35 23 -9 45 -31
62 -59 21 -34 33 -44 53 -45 29 0 42 -23 54 -92 4 -25 10 -35 19 -32 21 8 37
-41 24 -73 -6 -16 -12 -59 -13 -98 -1 -38 -5 -82 -9 -97 -5 -16 -4 -28 1 -28
13 0 46 97 49 144 2 23 6 60 10 84 5 37 9 43 28 40 16 -2 20 -9 18 -28 -9 -64
-6 -123 6 -127 8 -3 12 10 12 49 0 36 7 64 21 87 23 38 19 62 -9 54 -11 -2
-23 0 -26 6 -10 15 39 25 62 12 14 -7 22 -23 24 -49 3 -30 5 -33 12 -17 5 11
23 32 40 47 l31 27 -28 1 c-41 0 -128 31 -121 42 13 20 49 25 93 11 52 -15
137 -17 146 -3 4 6 -5 10 -19 10 -32 0 -33 15 -3 34 48 30 102 27 95 -5 -2
-10 6 -13 31 -11 38 3 53 12 33 19 -7 3 -25 16 -40 29 l-27 23 32 1 c45 0 86
-17 80 -34 -4 -9 5 -16 25 -20 47 -9 58 -7 52 9 -8 20 24 19 50 0 30 -23 40
-18 21 11 -26 40 -13 56 42 52 46 -3 76 -28 33 -28 -12 0 -18 -4 -15 -10 3 -5
21 -10 39 -10 18 0 45 -9 59 -20 34 -27 41 -25 21 5 -15 23 -15 25 1 31 10 4
23 3 30 -2 7 -5 27 -19 44 -32 36 -27 45 -7 10 24 -11 10 -25 27 -30 36 -8 15
-6 18 14 18 31 0 84 -40 67 -50 -8 -5 2 -14 26 -26 46 -23 79 -66 70 -90 -6
-15 -11 -13 -35 17 -45 54 -46 28 -2 -60 23 -45 41 -95 41 -113 0 -35 53 -138
71 -138 11 0 5 28 -16 70 -17 34 -30 160 -16 160 6 0 14 -15 19 -32 4 -18 15
-33 23 -33 20 0 13 53 -12 88 -21 29 -22 68 -2 74 6 2 14 -5 18 -16 3 -12 13
-21 21 -21 17 0 17 -1 -2 45 -8 20 -14 53 -12 73 2 30 9 40 33 51 36 17 63 39
77 65 9 17 7 18 -17 12 -46 -12 -26 24 24 44 29 11 40 20 32 25 -7 4 -11 18
-8 31 5 30 0 30 -24 2 -16 -20 -18 -21 -19 -5 0 10 9 36 20 57 17 34 18 40 5
40 -10 0 -15 10 -15 31 0 17 4 28 10 24 24 -15 31 8 10 30 l-22 24 17 87 c13
68 16 123 13 240 -4 147 -3 153 16 156 14 2 24 15 30 38 5 19 14 38 19 41 11
7 106 -16 119 -29z m-1081 -48 c6 -3 -21 -36 -59 -73 -82 -80 -138 -160 -206
-295 -48 -95 -51 -106 -51 -176 0 -66 5 -86 43 -174 24 -54 41 -101 37 -104
-3 -3 -15 -1 -25 6 -25 15 -53 15 -68 0 -6 -6 -13 -10 -15 -7 -53 75 -88 145
-108 218 -17 64 -17 65 6 110 12 25 32 55 44 65 15 14 18 22 10 32 -12 14 -1
42 26 64 11 9 12 16 5 25 -8 10 -2 20 24 41 21 17 31 31 24 35 -12 8 89 198
110 206 7 3 19 -1 28 -8 14 -11 19 -10 36 11 50 64 43 61 88 45 23 -8 46 -17
51 -21z m2792 -35 c51 -34 93 -63 95 -65 10 -7 -46 -74 -63 -76 -31 -5 -27
-51 5 -58 14 -3 40 -14 58 -25 l32 -19 0 -161 0 -161 -55 -27 c-30 -15 -55
-30 -55 -34 1 -5 23 -25 50 -46 28 -21 50 -42 50 -47 0 -9 -91 -87 -144 -124
-86 -58 -222 -11 -228 79 -3 43 14 75 67 124 63 57 192 125 239 126 24 0 32 5
34 22 3 17 -6 26 -44 42 -25 12 -52 21 -58 21 -6 0 -62 -24 -126 -54 -111 -53
-139 -61 -206 -58 -36 2 -115 52 -138 88 -16 23 -15 26 8 57 35 46 78 75 130
89 41 11 52 9 163 -27 120 -40 158 -45 226 -31 32 6 38 11 35 29 -2 17 -19 26
-93 47 -106 31 -141 48 -176 87 -81 86 -79 202 4 254 47 29 86 19 190 -52z
m-4808 -40 c53 -13 74 -35 82 -83 8 -52 -20 -119 -69 -161 -45 -38 -142 -74
-214 -80 -26 -2 -51 -9 -55 -16 -21 -35 24 -52 136 -52 58 -1 82 5 145 33 126
56 226 44 304 -39 25 -26 27 -32 16 -48 -59 -77 -116 -113 -180 -113 -22 0
-96 18 -164 40 -67 22 -130 40 -140 40 -9 0 -35 -9 -57 -21 -54 -27 -50 -52
11 -59 57 -7 208 -81 246 -121 42 -43 40 -108 -5 -177 -52 -81 -69 -81 -230
-2 -90 44 -121 64 -121 78 0 23 56 42 123 42 66 0 75 40 12 56 -38 9 -128 53
-137 67 -12 20 -20 271 -9 299 6 16 29 48 52 73 40 44 41 46 23 59 -40 28 -69
54 -64 58 110 83 160 113 210 129 35 10 36 10 85 -2z m3321 -376 c142 -164
287 -331 323 -371 l65 -74 -49 7 c-28 3 -81 17 -120 31 -45 15 -120 29 -210
38 -139 15 -140 15 -167 48 -44 53 -57 89 -78 220 -11 68 -24 141 -30 163 -16
64 -12 235 5 235 2 0 119 -134 261 -297z m622 115 c13 -49 7 -60 -49 -89 -48
-24 -49 -24 -49 3 0 27 60 128 76 128 6 0 16 -19 22 -42z m36 0 c3 -15 2 -30
-4 -33 -5 -3 -10 -2 -10 3 0 5 -3 25 -6 43 -8 41 10 29 20 -13z m-2430 -132
c-24 -43 -26 -55 -21 -116 6 -73 1 -110 -15 -110 -6 0 -8 13 -4 31 3 18 2 37
-3 43 -14 18 -20 98 -9 120 12 24 70 87 75 82 2 -1 -9 -24 -23 -50z m2450 13
c14 -70 1 -147 -83 -498 -30 -127 -26 -125 -239 -133 l-177 -6 -58 56 c-55 54
-76 87 -63 100 4 3 19 -7 34 -21 34 -33 43 -34 39 -6 -3 32 17 33 53 3 l32
-28 -22 43 c-12 24 -19 45 -17 48 10 9 44 -17 68 -51 28 -42 60 -52 33 -11
-15 23 -15 25 1 25 9 0 36 -13 60 -30 50 -35 66 -39 40 -10 -33 36 -6 39 42 4
21 -15 22 -14 56 44 19 32 40 76 47 97 14 44 19 186 7 228 -6 24 -4 29 19 37
21 9 25 15 22 38 -3 15 -8 35 -12 44 -9 21 45 58 85 58 22 0 28 -6 33 -31z
m-2416 -270 c2 -13 11 -30 19 -36 23 -18 12 -24 -16 -10 -31 16 -46 40 -38 61
10 24 31 15 35 -15z m-74 -56 c-9 -37 -24 -53 -24 -26 0 28 10 53 21 53 5 0 6
-12 3 -27z m52 -80 c-11 -12 -27 13 -20 32 7 17 8 17 17 -3 6 -12 7 -25 3 -29z
m74 32 c10 -12 10 -15 -3 -15 -8 0 -17 7 -21 15 -3 8 -2 15 3 15 5 0 14 -7 21
-15z m110 -10 c7 -9 10 -18 7 -21 -10 -11 -37 5 -37 21 0 19 14 19 30 0z
m-750 -24 c5 -11 10 -28 10 -37 0 -15 -4 -14 -25 6 -14 13 -25 29 -25 37 0 20
28 16 40 -6z m1447 -5 c-6 -17 -41 -13 -45 5 -2 13 3 15 23 11 14 -2 24 -10
22 -16z m207 8 c16 -6 23 -34 9 -34 -25 1 -53 14 -53 26 0 15 18 18 44 8z
m-970 -25 c-3 -5 -10 -7 -15 -3 -5 3 -7 10 -3 15 3 5 10 7 15 3 5 -3 7 -10 3
-15z m520 7 c-7 -18 -29 -27 -49 -20 -31 12 -12 32 32 33 15 1 21 -3 17 -13z
m1241 -17 c4 -6 5 -12 2 -15 -7 -7 -37 7 -37 17 0 13 27 11 35 -2z m-100 -9
c3 -5 -1 -10 -9 -10 -9 0 -16 5 -16 10 0 6 4 10 9 10 6 0 13 -4 16 -10z m-645
-40 c0 -6 -6 -10 -14 -10 -16 0 -38 24 -30 33 9 8 44 -11 44 -23z m-840 -9 c0
-16 -19 -23 -41 -16 -17 6 -19 9 -8 16 19 12 49 11 49 0z m-181 -10 c11 -7 10
-11 -6 -19 -25 -14 -56 3 -33 18 18 12 21 12 39 1z m1679 -43 c16 -16 15 -58
-1 -58 -13 0 -37 40 -37 60 0 14 24 12 38 -2z m-1718 -40 c0 -19 -2 -20 -10
-8 -13 19 -13 30 0 30 6 0 10 -10 10 -22z m-860 2 c0 -6 -10 -24 -22 -40 -30
-41 -15 -50 17 -11 15 17 31 31 36 31 14 0 11 -47 -6 -87 -23 -56 -19 -73 10
-38 l25 30 0 -34 c0 -21 -9 -44 -25 -63 -32 -38 -32 -53 1 -31 l26 17 -5 -40
c-2 -21 -12 -57 -20 -79 -17 -43 -6 -60 18 -29 13 17 14 10 15 -58 0 -51 6
-89 17 -113 9 -19 13 -38 10 -42 -14 -14 -38 25 -47 73 -6 40 -9 45 -15 27 -9
-29 -25 -20 -25 13 0 14 -7 39 -16 56 -9 18 -14 42 -10 59 3 16 1 31 -4 34 -6
3 -10 15 -10 27 0 17 -2 18 -15 8 -13 -10 -15 -9 -15 8 0 12 7 37 17 56 15 33
15 37 -5 84 -25 57 -21 98 10 131 20 23 38 27 38 11z m3236 -200 c65 -74 241
-271 391 -438 352 -391 482 -543 511 -595 23 -41 24 -46 19 -237 -6 -212 -26
-356 -76 -544 -26 -97 -64 -176 -84 -176 -4 0 -32 26 -61 58 -30 31 -74 71
-98 89 l-45 32 -32 -44 c-17 -24 -38 -60 -46 -80 -13 -30 -20 -35 -49 -35 -19
0 -63 13 -98 30 -71 34 -109 37 -162 15 -40 -17 -46 -39 -15 -56 36 -19 229
-171 229 -180 0 -5 -34 -47 -76 -94 -42 -47 -75 -88 -73 -89 2 -2 64 -23 137
-46 72 -23 132 -43 132 -44 0 -2 -6 -19 -14 -37 -15 -36 -336 -345 -435 -419
-56 -43 -75 -47 -116 -28 -24 11 -758 843 -1400 1588 -159 184 -347 392 -417
462 -70 70 -128 132 -128 137 0 18 136 26 415 24 415 -2 484 -18 556 -131 16
-26 33 -65 39 -87 5 -22 25 -69 42 -104 24 -47 30 -65 20 -69 -67 -23 -182
-138 -182 -182 0 -22 26 -45 74 -65 34 -15 50 -15 124 -5 l85 12 31 -35 c17
-20 56 -53 86 -74 54 -37 58 -38 158 -41 119 -4 207 16 251 58 56 54 166 206
181 250 9 26 43 93 77 151 72 120 83 147 83 195 0 50 -22 93 -71 141 -71 68
-121 78 -209 43 -28 -11 -62 -20 -76 -20 -24 0 -24 0 -23 93 1 102 -6 242 -18
359 -5 53 -15 85 -29 105 -12 16 -25 47 -29 70 -3 23 -20 62 -36 88 -16 25
-29 49 -29 54 0 13 82 21 214 21 67 0 128 4 136 10 8 5 15 8 16 7 0 -1 54 -63
120 -137z m-3296 10 c0 -11 -4 -20 -9 -20 -5 0 -7 9 -4 20 3 11 7 20 9 20 2 0
4 -9 4 -20z m2898 -667 c2 -9 -8 -13 -32 -13 -34 0 -44 8 -29 24 11 11 56 2
61 -11z m387 -122 c19 -38 11 -65 -17 -50 -21 11 -38 47 -31 67 9 21 32 13 48
-17z m-700 -561 c3 -6 -1 -13 -10 -16 -19 -8 -30 0 -20 15 8 14 22 14 30 1z
m1375 -688 c36 -35 40 -44 40 -88 0 -59 -33 -131 -85 -188 -32 -35 -39 -38
-73 -33 -20 3 -50 10 -67 17 l-30 12 57 29 57 29 -29 66 c-17 36 -27 70 -24
75 3 5 20 9 38 9 43 0 56 16 56 67 0 24 4 43 10 43 5 0 27 -17 50 -38z m-4637
-78 c9 -55 22 -64 88 -64 l59 0 -17 -34 c-8 -19 -26 -39 -39 -45 -13 -6 -24
-19 -24 -29 0 -14 14 -20 83 -30 83 -14 109 -25 92 -40 -21 -18 -196 -75 -205
-66 -5 5 -42 67 -83 138 l-75 129 50 43 c28 24 54 41 58 39 4 -3 10 -21 13
-41z m2337 -734 c87 -108 98 -163 55 -276 -39 -104 -77 -252 -70 -275 6 -17
52 -45 61 -36 2 1 15 45 29 97 51 184 79 231 174 292 62 39 104 37 146 -5 47
-47 62 -103 43 -159 -57 -159 -82 -218 -95 -218 -23 0 -61 46 -68 81 -4 19
-13 43 -21 54 -15 20 -16 20 -40 -8 -20 -24 -24 -38 -24 -96 0 -94 -12 -107
-120 -131 -170 -39 -188 -41 -229 -30 -56 15 -66 28 -80 109 -7 39 -16 71 -20
71 -4 0 -27 -23 -51 -51 -51 -61 -42 -68 -130 98 -61 115 -70 151 -48 198 35
76 180 72 228 -7 32 -52 81 -186 95 -261 7 -38 19 -73 26 -77 34 -22 49 18 49
127 0 47 -10 95 -40 187 -41 127 -50 199 -29 253 12 32 86 133 97 133 4 -1 32
-32 62 -70z"/>
<path d="M5976 6223 c-4 -9 -2 -21 4 -27 7 -7 10 -7 10 1 0 6 3 18 6 27 3 9 2
16 -4 16 -5 0 -13 -8 -16 -17z"/>
<path d="M3876 6150 c8 -80 15 -98 48 -129 38 -35 44 -18 8 23 -23 27 -31 45
-30 74 0 21 -7 52 -16 68 -16 29 -17 28 -10 -36z"/>
<path d="M3992 5970 c0 -14 2 -19 5 -12 2 6 2 18 0 25 -3 6 -5 1 -5 -13z"/>
<path d="M6040 5850 c0 -5 5 -10 11 -10 5 0 7 5 4 10 -3 6 -8 10 -11 10 -2 0
-4 -4 -4 -10z"/>
<path d="M4240 5816 c0 -2 12 -11 26 -21 25 -16 25 -16 14 4 -9 17 -40 30 -40
17z"/>
<path d="M5939 5807 c-35 -16 -93 -66 -85 -74 12 -12 86 31 100 59 8 15 14 28
13 28 -1 -1 -14 -6 -28 -13z"/>
<path d="M4419 5739 c13 -11 26 -17 29 -14 8 8 -20 35 -37 35 -12 -1 -11 -5 8
-21z"/>
<path d="M4140 5715 c27 -14 36 -13 25 4 -3 6 -16 11 -28 11 -21 -1 -21 -1 3
-15z"/>
<path d="M5884 5685 c-6 -14 3 -52 10 -44 2 2 6 16 10 32 7 29 -10 39 -20 12z"/>
<path d="M5993 5693 c-15 -5 -17 -23 -4 -23 5 0 11 7 15 15 3 8 4 15 3 14 -1
0 -8 -3 -14 -6z"/>
<path d="M4270 5681 c0 -5 5 -13 10 -16 6 -3 10 -2 10 4 0 5 -4 13 -10 16 -5
3 -10 2 -10 -4z"/>
<path d="M5256 5661 c-7 -10 7 -22 52 -45 46 -24 51 -13 12 24 -32 30 -54 37
-64 21z"/>
<path d="M5430 5630 c21 -30 44 -33 33 -4 -5 14 -34 34 -48 34 -4 0 3 -14 15
-30z"/>
<path d="M6210 5650 c0 -5 5 -10 10 -10 6 0 10 5 10 10 0 6 -4 10 -10 10 -5 0
-10 -4 -10 -10z"/>
<path d="M4525 5628 c-8 -29 1 -68 16 -68 11 0 11 47 -1 75 -7 19 -8 18 -15
-7z"/>
<path d="M5135 5626 c30 -26 55 -34 55 -17 0 14 -23 29 -55 36 l-30 6 30 -25z"/>
<path d="M4220 5618 c0 -18 5 -28 15 -28 19 0 19 11 0 36 -14 18 -14 18 -15
-8z"/>
<path d="M4422 5611 c2 -19 9 -37 17 -39 11 -4 12 2 7 24 -11 45 -28 55 -24
15z"/>
<path d="M4960 5615 c-18 -21 -6 -29 20 -15 13 7 36 9 52 6 26 -5 29 -4 18 9
-16 19 -74 19 -90 0z"/>
<path d="M5615 5580 c12 -13 22 -17 28 -11 13 13 -1 31 -25 31 -21 0 -21 -1
-3 -20z"/>
<path d="M5920 5568 c1 -15 49 -53 57 -44 7 7 -15 34 -39 47 -13 7 -18 6 -18
-3z"/>
<path d="M4896 5544 c-18 -17 -19 -24 -8 -42 6 -9 14 -4 30 18 12 16 22 32 22
35 0 11 -29 4 -44 -11z"/>
<path d="M5030 5545 c0 -8 2 -15 4 -15 2 0 12 -3 21 -6 15 -6 15 -4 4 15 -16
25 -29 27 -29 6z"/>
<path d="M5180 5532 c0 -12 19 -26 26 -19 2 2 -2 10 -11 17 -9 8 -15 8 -15 2z"/>
<path d="M5310 5531 c0 -5 7 -11 15 -15 8 -3 15 -1 15 3 0 5 -7 11 -15 15 -8
3 -15 1 -15 -3z"/>
<path d="M4300 5515 c7 -9 15 -13 17 -11 7 7 -7 26 -19 26 -6 0 -6 -6 2 -15z"/>
<path d="M5670 5513 c0 -4 8 -17 16 -28 15 -20 16 -20 12 4 -3 22 -28 44 -28
24z"/>
<path d="M5890 5500 c0 -6 7 -13 15 -17 24 -9 27 1 5 15 -13 8 -20 8 -20 2z"/>
<path d="M5575 5490 c3 -5 11 -10 16 -10 6 0 7 5 4 10 -3 6 -11 10 -16 10 -6
0 -7 -4 -4 -10z"/>
<path d="M4040 5480 c0 -19 50 -110 60 -110 16 0 12 14 -16 64 -26 47 -44 66
-44 46z"/>
<path d="M4820 5446 c0 -25 4 -46 9 -46 14 0 20 23 14 53 -9 46 -23 41 -23 -7z"/>
<path d="M4140 5471 c0 -5 14 -20 32 -32 31 -22 31 -12 0 24 -16 19 -32 23
-32 8z"/>
<path d="M5108 5448 c12 -12 24 -19 28 -15 10 10 -16 37 -34 37 -13 0 -12 -4
6 -22z"/>
<path d="M6420 5451 c0 -6 5 -13 11 -17 8 -4 10 -26 6 -60 -6 -55 4 -70 23
-35 15 28 12 73 -6 99 -16 23 -34 29 -34 13z"/>
<path d="M4929 5412 c12 -23 40 -47 46 -40 3 3 -4 17 -16 31 -24 31 -45 37
-30 9z"/>
<path d="M5870 5400 c0 -14 26 -23 41 -15 8 6 7 10 -2 16 -19 12 -39 11 -39
-1z"/>
<path d="M6290 5390 c0 -11 5 -20 10 -20 6 0 10 9 10 20 0 11 -4 20 -10 20 -5
0 -10 -9 -10 -20z"/>
<path d="M6519 5386 c-9 -19 -9 -30 -2 -37 8 -8 13 -2 18 21 4 17 4 34 1 37
-3 3 -11 -6 -17 -21z"/>
<path d="M5670 5380 c0 -6 8 -25 17 -43 20 -37 30 -17 14 26 -10 26 -31 37
-31 17z"/>
<path d="M4684 5296 c-9 -15 -14 -29 -11 -32 3 -3 13 6 23 20 9 15 14 29 11
32 -3 3 -13 -6 -23 -20z"/>
<path d="M4156 5302 c-3 -5 1 -15 9 -22 16 -14 20 -3 6 19 -5 8 -11 9 -15 3z"/>
<path d="M4890 5291 c0 -20 17 -37 27 -28 7 8 -7 47 -18 47 -5 0 -9 -9 -9 -19z"/>
<path d="M4792 5288 c2 -6 10 -14 16 -16 7 -2 10 2 6 12 -7 18 -28 22 -22 4z"/>
<path d="M6536 5264 c-8 -22 4 -40 15 -23 11 18 11 39 0 39 -5 0 -12 -7 -15
-16z"/>
<path d="M4617 5203 c-10 -18 -13 -33 -8 -33 15 0 33 28 29 47 -3 14 -8 11
-21 -14z"/>
<path d="M6597 5206 c-4 -10 -7 -25 -6 -34 0 -11 4 -9 10 7 5 13 8 29 6 35 -2
5 -6 2 -10 -8z"/>
<path d="M4670 5154 c-31 -49 -36 -64 -22 -64 9 0 72 80 72 91 0 27 -24 13
-50 -27z"/>
<path d="M5740 5172 c0 -12 7 -25 15 -29 24 -9 25 0 5 27 l-20 25 0 -23z"/>
<path d="M4136 5153 c-10 -43 0 -86 25 -109 21 -19 24 -13 8 18 -7 12 -15 44
-18 72 -7 50 -7 50 -15 19z"/>
<path d="M6440 5151 c0 -5 -3 -18 -7 -28 -6 -16 -5 -16 10 -4 19 15 23 41 7
41 -5 0 -10 -4 -10 -9z"/>
<path d="M6580 5089 c-13 -24 -4 -41 10 -19 10 16 13 40 5 40 -2 0 -9 -9 -15
-21z"/>
<path d="M6325 5067 c-4 -10 -5 -21 -1 -24 10 -10 18 4 13 24 -4 17 -4 17 -12
0z"/>
<path d="M6492 5007 c2 -15 7 -28 13 -28 16 -1 16 16 0 36 -15 19 -15 19 -13
-8z"/>
<path d="M6106 4891 c-11 -23 -16 -44 -13 -48 8 -7 39 65 35 79 -2 6 -12 -8
-22 -31z"/>
<path d="M5991 4892 c-7 -13 -11 -26 -8 -28 8 -8 29 25 25 38 -3 8 -9 4 -17
-10z"/>
<path d="M4140 4875 c7 -8 22 -15 34 -15 20 1 20 2 -4 15 -33 19 -46 19 -30 0z"/>
<path d="M6538 4877 c-19 -15 -30 -45 -19 -51 8 -5 46 53 39 60 -3 2 -11 -2
-20 -9z"/>
<path d="M4777 4869 c7 -7 15 -10 18 -7 3 3 -2 9 -12 12 -14 6 -15 5 -6 -5z"/>
<path d="M6214 4835 c-8 -13 -14 -32 -12 -42 3 -14 8 -10 26 18 12 20 22 39
22 43 0 15 -21 4 -36 -19z"/>
<path d="M6390 4756 c-31 -46 -37 -66 -20 -66 6 0 10 4 10 9 0 4 14 25 30 46
17 21 30 42 30 46 0 21 -21 6 -50 -35z"/>
<path d="M6241 4607 c-6 -8 -14 -28 -17 -45 -8 -40 12 -43 27 -5 6 16 18 36
26 45 15 17 15 18 -4 18 -11 0 -26 -6 -32 -13z"/>
<path d="M6377 4527 c-3 -8 -1 -20 4 -28 6 -10 9 -7 9 14 0 29 -5 35 -13 14z"/>
<path d="M6546 4299 c-33 -9 -88 -58 -80 -71 10 -16 83 -48 109 -48 32 0 81
46 91 84 3 15 5 28 3 30 -11 9 -98 13 -123 5z m4 -44 c0 -28 -20 -41 -46 -31
-15 6 -14 10 6 31 30 32 40 32 40 0z"/>
<path d="M6174 4230 c-25 -10 -41 -30 -25 -30 28 0 6 -20 -44 -40 -70 -28 -72
-45 -4 -37 52 6 209 83 217 105 4 14 -111 16 -144 2z"/>
<path d="M6514 4035 c-17 -13 -17 -14 -2 -15 9 0 20 5 23 11 11 17 0 20 -21 4z"/>
<path d="M6591 4021 c-18 -14 -20 -20 -10 -23 19 -7 49 10 49 27 0 20 -10 19
-39 -4z"/>
<path d="M4637 6133 c-4 -3 -7 -11 -7 -17 0 -6 5 -5 12 2 6 6 9 14 7 17 -3 3
-9 2 -12 -2z"/>
<path d="M4670 5992 c0 -5 7 -15 15 -22 8 -7 15 -8 15 -2 0 5 -7 15 -15 22 -8
7 -15 8 -15 2z"/>
<path d="M4696 5922 c-3 -4 8 -13 25 -19 32 -13 40 0 10 17 -24 12 -28 12 -35
2z"/>
<path d="M6887 5742 c-23 -25 -24 -50 -1 -32 20 17 37 50 26 50 -5 0 -16 -8
-25 -18z"/>
</g>
</svg>
